<svg width="150" height="36" viewBox="0 0 150 36" fill="none" xmlns="http://www.w3.org/2000/svg">
<path d="M18 22C21.866 22 25 25.134 25 29C25 32.866 21.866 36 18 36C14.134 36 11 32.866 11 29C11 25.134 14.134 22 18 22Z" fill="#926247"/>
<path d="M7 11C10.866 11 14 14.134 14 18C14 21.866 10.866 25 7 25C3.13401 25 2.37484e-07 21.866 1.5299e-07 18C6.84959e-08 14.134 3.13401 11 7 11Z" fill="#926247"/>
<path d="M18 1.5299e-07C21.866 6.84959e-08 25 3.13401 25 7C25 10.866 21.866 14 18 14C14.134 14 11 10.866 11 7C11 3.13401 14.134 2.37484e-07 18 1.5299e-07Z" fill="#926247"/>
<path d="M29 11C32.866 11 36 14.134 36 18C36 21.866 32.866 25 29 25C25.134 25 22 21.866 22 18C22 14.134 25.134 11 29 11Z" fill="#926247"/>
<path d="M53.8733 10.2671V13.7897H58.4156V17.8826H53.8733V30.5639H49.8136V17.8826H48V13.7897H49.8136V10.2671C49.8136 9.30538 50.0465 8.42753 50.5124 7.63355C50.9894 6.82839 51.6272 6.19097 52.4258 5.72129C53.2245 5.24043 54.1063 5 55.0713 5C55.7701 5 56.4634 5.14538 57.1511 5.43613C57.8388 5.72688 58.4489 6.17419 58.9813 6.77806L56.053 9.66323C55.9531 9.47312 55.8089 9.33333 55.6204 9.24387C55.4429 9.14323 55.2599 9.0929 55.0713 9.0929C54.7496 9.0929 54.4668 9.21032 54.2228 9.44516C53.9898 9.66882 53.8733 9.9428 53.8733 10.2671Z" fill="#4B3425"/>
<path d="M59.9677 30.5639L59.951 13.7897H64.0108L64.0274 15.2826C64.5931 14.6787 65.2698 14.2034 66.0573 13.8568C66.8449 13.4989 67.6934 13.32 68.603 13.32C69.2131 13.32 69.8231 13.4095 70.4332 13.5884L68.8359 17.7148C68.4144 17.5471 67.9929 17.4632 67.5714 17.4632C66.917 17.4632 66.318 17.6254 65.7745 17.9497C65.242 18.2628 64.815 18.6933 64.4933 19.2413C64.1827 19.7781 64.0274 20.3763 64.0274 21.0361V30.5639H59.9677Z" fill="#4B3425"/>
<path d="M77.3433 31C75.8126 31 74.415 30.603 73.1505 29.809C71.897 29.0151 70.8932 27.9471 70.1389 26.6052C69.3957 25.2632 69.0241 23.7815 69.0241 22.16C69.0241 20.9411 69.2404 19.8004 69.673 18.7381C70.1056 17.6645 70.6991 16.7252 71.4534 15.92C72.2187 15.1037 73.1061 14.4662 74.1155 14.0077C75.1249 13.5492 76.2008 13.32 77.3433 13.32C78.6411 13.32 79.828 13.5996 80.9039 14.1587C81.991 14.7067 82.9116 15.4615 83.6659 16.4232C84.4202 17.3849 84.9693 18.4809 85.3131 19.711C85.657 20.9411 85.7346 22.2271 85.5461 23.569H73.3834C73.5387 24.1953 73.7938 24.76 74.1488 25.2632C74.5037 25.7553 74.953 26.1523 75.4965 26.4542C76.04 26.7449 76.6556 26.8959 77.3433 26.9071C78.0532 26.9183 78.6966 26.7505 79.2734 26.4039C79.8613 26.046 80.3493 25.5652 80.7376 24.9613L84.8805 25.9342C84.2039 27.4215 83.1945 28.6404 81.8523 29.591C80.5102 30.5303 79.0072 31 77.3433 31ZM73.2503 20.4994H81.4364C81.3144 19.8284 81.0537 19.2245 80.6544 18.6877C80.2661 18.1398 79.7836 17.7037 79.2068 17.3794C78.63 17.0551 78.0089 16.8929 77.3433 16.8929C76.6778 16.8929 76.0622 17.0551 75.4965 17.3794C74.9308 17.6925 74.4483 18.123 74.0489 18.671C73.6607 19.2077 73.3945 19.8172 73.2503 20.4994Z" fill="#4B3425"/>
<path d="M85.7327 24.3574V13.7897H89.7925V23.2839C89.7925 23.9437 89.9533 24.5475 90.275 25.0955C90.5967 25.6323 91.0237 26.0628 91.5561 26.3871C92.0997 26.7002 92.6931 26.8568 93.3365 26.8568C94.002 26.8568 94.601 26.7002 95.1334 26.3871C95.6658 26.0628 96.0929 25.6323 96.4146 25.0955C96.7362 24.5475 96.8971 23.9437 96.8971 23.2839V13.7897H100.957L100.973 30.5639H96.9137L96.8971 29.0374C96.3203 29.6413 95.6381 30.1222 94.8505 30.48C94.063 30.8267 93.22 31 92.3215 31C91.1125 31 90.0088 30.7037 89.0105 30.111C88.0122 29.5071 87.2135 28.7075 86.6145 27.7123C86.0267 26.7058 85.7327 25.5875 85.7327 24.3574Z" fill="#4B3425"/>
<path d="M115.125 5.40258H119.185V30.5639H115.125V28.4671C114.593 29.2163 113.922 29.8258 113.112 30.2955C112.302 30.7652 111.365 31 110.3 31C109.091 31 107.96 30.7708 106.906 30.3123C105.852 29.8538 104.92 29.2219 104.111 28.4168C103.312 27.6004 102.685 26.6611 102.23 25.5987C101.776 24.5363 101.548 23.3957 101.548 22.1768C101.548 20.9578 101.776 19.8172 102.23 18.7548C102.685 17.6925 103.312 16.7587 104.111 15.9535C104.92 15.1372 105.852 14.4998 106.906 14.0413C107.96 13.5828 109.091 13.3535 110.3 13.3535C111.365 13.3535 112.302 13.5884 113.112 14.0581C113.922 14.5166 114.593 15.126 115.125 15.8865V5.40258ZM110.35 27.0581C111.215 27.0581 111.981 26.84 112.646 26.4039C113.312 25.9677 113.833 25.3806 114.21 24.6426C114.587 23.8933 114.776 23.0714 114.776 22.1768C114.776 21.271 114.587 20.449 114.21 19.711C113.833 18.9617 113.306 18.369 112.629 17.9329C111.964 17.4968 111.204 17.2787 110.35 17.2787C109.496 17.2787 108.714 17.5024 108.004 17.9497C107.305 18.3858 106.745 18.9729 106.323 19.711C105.913 20.449 105.708 21.271 105.708 22.1768C105.708 23.0826 105.919 23.9045 106.34 24.6426C106.762 25.3806 107.322 25.9677 108.021 26.4039C108.731 26.84 109.507 27.0581 110.35 27.0581Z" fill="#4B3425"/>
<path d="M123.099 31C122.522 31 122.028 30.7987 121.618 30.3961C121.219 29.9824 121.019 29.4791 121.019 28.8865C121.019 28.3161 121.219 27.8241 121.618 27.4103C122.028 26.9966 122.522 26.7897 123.099 26.7897C123.676 26.7897 124.169 26.9966 124.58 27.4103C124.99 27.8241 125.195 28.3161 125.195 28.8865C125.195 29.4791 124.99 29.9824 124.58 30.3961C124.169 30.7987 123.676 31 123.099 31Z" fill="#4B3425"/>
<path d="M139.979 13.7897H144.039V30.5639H139.979L139.796 28.4839C139.341 29.2331 138.737 29.8426 137.983 30.3123C137.239 30.7708 136.358 31 135.337 31C134.106 31 132.952 30.7652 131.876 30.2955C130.8 29.8258 129.852 29.1772 129.031 28.3497C128.221 27.5222 127.584 26.566 127.118 25.4813C126.663 24.3966 126.436 23.2335 126.436 21.9923C126.436 20.7957 126.652 19.6718 127.085 18.6206C127.528 17.5695 128.144 16.6469 128.931 15.8529C129.719 15.0589 130.629 14.4383 131.66 13.991C132.692 13.5437 133.801 13.32 134.988 13.32C136.086 13.32 137.068 13.566 137.933 14.0581C138.809 14.5501 139.552 15.1763 140.162 15.9368L139.979 13.7897ZM135.237 27.0581C136.103 27.0581 136.868 26.84 137.533 26.4039C138.199 25.9677 138.72 25.3806 139.097 24.6426C139.475 23.8933 139.663 23.0714 139.663 22.1768C139.663 21.271 139.475 20.449 139.097 19.711C138.72 18.9617 138.193 18.369 137.517 17.9329C136.851 17.4968 136.091 17.2787 135.237 17.2787C134.383 17.2787 133.601 17.5024 132.891 17.9497C132.193 18.3858 131.632 18.9729 131.211 19.711C130.8 20.449 130.595 21.271 130.595 22.1768C130.595 23.0826 130.806 23.9045 131.227 24.6426C131.649 25.3806 132.209 25.9677 132.908 26.4039C133.618 26.84 134.394 27.0581 135.237 27.0581Z" fill="#4B3425"/>
<path d="M145.857 13.7897H149.917V30.5639H145.857V13.7897ZM147.92 11.6258C147.321 11.6258 146.817 11.4301 146.406 11.0387C145.996 10.6361 145.79 10.1329 145.79 9.52903C145.79 8.93634 145.996 8.43871 146.406 8.03613C146.817 7.63355 147.316 7.43226 147.904 7.43226C148.491 7.43226 148.985 7.63355 149.384 8.03613C149.795 8.43871 150 8.93634 150 9.52903C150 10.1329 149.8 10.6361 149.401 11.0387C149.002 11.4301 148.508 11.6258 147.92 11.6258Z" fill="#4B3425"/>
</svg>
